HIERARCHY
ROOT pelvis
{
  OFFSET 0 100 0
  CHANNELS 6 Xposition Yposition Zposition Zrotation Xrotation Yrotation
  JOINT pelvis_right_femur
  {
    OFFSET -10.78128 -3.44521 -0.5502486
    CHANNELS 3 Zrotation Xrotation Yrotation
    JOINT right_femur_tibia
    {
      OFFSET -0.8047443 -44.0398 -0.1307829
      CHANNELS 3 Zrotation Xrotation Yrotation
      JOINT right_tibia_foot
      {
        OFFSET 3.006224 -47.83518 -5
        CHANNELS 3 Zrotation Xrotation Yrotation
        End Site
        {
          OFFSET 0 -5 15
        }
      }
    }
  }
  JOINT pelvis_left_femur
  {
    OFFSET 10.78128 -3.44521 -0.5502486
    CHANNELS 3 Zrotation Xrotation Yrotation
    JOINT left_femur_tibia
    {
      OFFSET 0.8047443 -44.0398 -0.1307829
      CHANNELS 3 Zrotation Xrotation Yrotation
      JOINT left_tibia_foot
      {
        OFFSET -4.370144 -48.10324 -4.275266
        CHANNELS 3 Zrotation Xrotation Yrotation
        End Site
        {
          OFFSET 0 -5 15
        }
      }
    }
  }
  JOINT pelvis_spine1
  {
    OFFSET 0 6.468898 -3.129235
    CHANNELS 3 Zrotation Xrotation Yrotation
    JOINT spine1
    {
      OFFSET 0 23.15396 4.99043
      CHANNELS 3 Zrotation Xrotation Yrotation
      JOINT spine2
      {
        OFFSET 0 20.79997 -5.064912
        CHANNELS 3 Zrotation Xrotation Yrotation
        JOINT neck
        {
          OFFSET 0 14.38658 9.616178
          CHANNELS 3 Zrotation Xrotation Yrotation
          End Site
          {
            OFFSET 0 20 0
          }
        }
      }
      JOINT right_manubrium
      {
        OFFSET -5.722621 16.35077 3.967754
        CHANNELS 3 Zrotation Xrotation Yrotation
        JOINT right_clavicle
        {
          OFFSET -13.16364 1.694482 -4.693211
          CHANNELS 3 Zrotation Xrotation Yrotation
          JOINT right_humerus
          {
            OFFSET -28.5034 -0.3100689 -2.792744
            CHANNELS 3 Zrotation Xrotation Yrotation
            JOINT right_radius
            {
              OFFSET -25.15693 0.02248979 -1.271978
              CHANNELS 3 Zrotation Xrotation Yrotation
              End Site
              {
                OFFSET -15 0 0
              }
            }
          }
        }
      }
      JOINT left_manubrium
      {
        OFFSET 5.722621 16.35077 3.967754
        CHANNELS 3 Zrotation Xrotation Yrotation
        JOINT left_clavicle
        {
          OFFSET 13.16364 1.694482 -4.693211
          CHANNELS 3 Zrotation Xrotation Yrotation
          JOINT left_humerus
          {
            OFFSET 29.39168 -1.063119 -2.237045
            CHANNELS 3 Zrotation Xrotation Yrotation
            JOINT left_radius
            {
              OFFSET 24.59957 -0.9528479 0.9047498
              CHANNELS 3 Zrotation Xrotation Yrotation
              End Site
              {
                OFFSET 15 -0 -0
              }
            }
          }
        }
      }
    }
  }
}
MOTION
Frames: 15
Frame Time: 0.0416666666667
0 103.5113 0 2.165812 -2.435192 0.2567061 2.003082 -12.97589 7.398658 -0 35.4209 -0 -5.60965 -16.70001 -4.848154 -7.296663 14.57076 -24.78511 -0 5.473788 -0 -0.4459711 -21.87197 23.51794 -4.865052 -3.478988 3.569028 2.06612 7.762894 -7.838796 0.5602551 23.73048 8.026223 4.138676 -21.91702 8.370313 6.463575 -18.12493 11.23839 87.59914 36.68303 -23.15735 -0 0 13.94908 -7.537119 8.301724 4.153095 4.742646 -19.5609 -3.097639 -98.75032 42.15038 25.83863 0 0 -22.74508 -11.43222 16.65 26.85172
0.06701001 103.2977 1.306228 1.639288 -2.077087 0.4127063 2.61998 -14.94526 7.274767 -0 35.65922 -0 -5.596783 -16.11456 -4.738659 -6.916245 14.26013 -24.472 -0 5.139274 -0 -0.8654509 -22.13887 22.85131 -4.34913 -3.110614 3.462656 2.062736 7.686593 -7.821339 0.6059499 23.49373 8.070038 4.187336 -22.24709 8.455896 6.43412 -18.22305 11.24204 87.27303 36.22646 -22.70412 -0 0 14.41921 -7.581395 8.237575 4.190731 4.985532 -19.59457 -2.985007 -98.80333 41.43817 26.0315 0 0 -22.31159 -10.78353 16.77623 26.28839
0.1360173 103.0216 2.841282 0.9340276 -1.313265 0.5566767 3.679461 -18.84114 6.980581 -0 34.35355 -0 -5.727521 -14.55345 -4.58508 -6.342858 14.23363 -23.81648 -0 5.219244 -0 -1.992689 -23.05056 21.58142 -3.639724 -2.438281 3.346152 1.97695 7.510234 -7.902021 0.6074344 23.03592 8.301554 4.633468 -22.4816 8.338199 6.602448 -18.07019 11.17707 86.99347 36.4248 -22.66779 -0 0 14.78424 -7.647191 8.330423 4.128534 5.53504 -19.9945 -2.95903 -98.8655 41.30326 26.16123 0 0 -22.96737 -10.76077 16.56595 26.65307
0.2064488 102.684 4.554735 0.3264203 -0.6576482 0.7204599 4.502684 -21.7896 6.918024 -0 33.30955 -0 -5.690537 -13.89456 -4.520558 -5.834546 14.25383 -23.40515 -0 5.388139 -0 -2.894751 -23.59693 20.51237 -3.065223 -1.970331 3.222439 1.996357 7.240925 -7.957409 0.6761315 22.72105 8.394319 4.805104 -22.75217 8.395516 6.67737 -17.9063 11.07523 86.64926 36.36491 -22.48192 -0 0 15.15076 -7.561089 8.416554 4.043552 5.887404 -20.08074 -2.779192 -98.88598 40.95977 26.18563 0 0 -22.97775 -10.44652 16.57389 26.55948
0.28917 102.2968 6.532337 -0.298584 -0.1311113 0.9098208 5.153956 -24.38231 6.657579 -0 32.30608 -0 -5.838209 -12.57079 -4.357956 -5.311305 14.17778 -22.67252 -0 5.713547 -0 -3.5747 -23.79378 19.33298 -2.485822 -1.522164 3.013074 2.086355 7.135875 -8.038275 0.7526037 22.42139 8.390497 4.820102 -23.21735 8.472964 6.528967 -17.8694 11.00777 86.48102 35.86211 -22.17154 -0 0 15.28761 -7.880806 8.478008 4.305736 6.060238 -20.14939 -2.693971 -98.35885 39.96074 25.78963 0 0 -22.71818 -9.559146 16.5118 25.78101
0.3920779 101.8618 8.85022 -0.8932244 0.1742549 1.132721 5.520978 -26.3788 6.109905 -0 31.27457 -0 -6.177581 -10.74061 -4.12675 -4.803876 14.01875 -21.58857 -0 6.259609 -0 -3.989865 -23.62895 18.08394 -1.95274 -1.12974 2.716975 2.262552 7.201892 -8.146387 0.8370995 22.18453 8.265977 4.632797 -23.84541 8.57316 6.087958 -17.9528 10.9825 86.55662 34.74494 -21.77237 -0 0 15.10924 -8.633907 8.468952 4.90015 6.039329 -20.22512 -2.704978 -97.25673 38.26384 24.89016 0 0 -22.18769 -8.04921 16.4089 24.19656
0.5201923 101.3585 11.62338 -1.409144 0.1799588 1.385778 5.493833 -27.78334 5.072176 -0 29.74096 -0 -6.798112 -8.222124 -3.814788 -4.325422 13.80116 -19.94422 -0 7.213024 -0 -4.127065 -23.13521 16.69952 -1.500209 -0.7715903 2.335875 2.526618 7.488854 -8.300418 0.9219501 22.01905 8.011282 4.25152 -24.57959 8.642115 5.260601 -18.13082 11.00674 87.01942 32.85701 -21.37611 -0 0 14.43343 -9.981118 8.354055 5.869036 5.849594 -20.44305 -2.878271 -95.42212 35.69827 23.26078 0 0 -21.59925 -5.788497 16.17504 21.61304
0.6722609 100.7193 14.99751 -1.673956 -0.3037348 1.646157 4.847903 -28.33689 3.277157 -0 26.95566 -0 -7.796648 -4.91579 -3.404716 -3.968998 13.55163 -17.47731 -0 8.771992 -0 -3.885313 -22.37312 15.21189 -1.247697 -0.447252 1.925989 2.848505 8.090691 -8.502349 0.9885311 21.96127 7.618268 3.708339 -25.22141 8.573885 3.917292 -18.36642 11.09804 88.0878 30.00708 -21.13029 -0 0 12.99176 -12.12859 8.051327 7.218987 5.546084 -21.03345 -3.347526 -92.70758 32.03865 20.59411 0 0 -21.38507 -2.650491 15.62936 17.77987
0.8359991 99.78518 19.13312 -1.351236 -1.546482 1.879083 3.355448 -27.67065 0.4995595 -0 21.6911 -0 -9.156238 -0.9877212 -2.895145 -3.931694 13.31607 -13.9129 -0 10.95517 -0 -3.155755 -21.58223 13.75661 -1.391771 -0.1460465 1.662024 3.109658 9.105664 -8.698816 1.006825 22.05 7.107399 3.128756 -25.30243 8.186571 1.940914 -18.58128 11.27188 89.97828 26.04515 -21.24046 -0 0 10.54653 -15.18718 7.406198 8.784671 5.302726 -22.35955 -4.330095 -89.12622 27.12824 16.56004 0 0 -22.4136 1.320914 14.42375 12.58348
0.9883598 98.30442 24.12132 -0.07891978 -3.545228 2.112136 1.259144 -25.80121 -2.82172 -0 13.07943 -0 -10.28305 2.327083 -2.461353 -4.458949 13.3029 -9.584054 -0 12.92918 -0 -2.110585 -21.37657 12.6663 -2.054563 0.1217442 1.874215 3.022566 10.34737 -8.677066 0.9777062 22.2647 6.582477 2.807116 -24.08935 7.360267 -0.4515547 -18.56625 11.47438 92.46262 21.39166 -21.8635 -0 0 7.47093 -18.4425 6.328317 9.846016 5.516897 -24.59338 -5.870522 -85.35324 21.70501 11.30608 0 0 -25.76586 5.366789 12.33382 6.788557
1.121095 96.31237 29.87109 1.459021 -4.742381 2.4215 0.2862945 -24.71281 -4.487172 -0 4.561977 -0 -9.741506 2.570223 -2.567297 -5.274232 14.34896 -6.784773 -0 12.99871 -0 -1.781117 -22.10077 12.22114 -2.585379 0.1555304 2.548322 2.399713 10.76315 -8.193764 1.038253 22.31731 6.275728 2.953193 -21.89492 6.624134 -1.932689 -17.88732 11.47942 94.01758 18.55048 -22.83971 -0 0 5.558997 -19.2952 5.563073 9.229733 6.501238 -26.44387 -6.906725 -83.06803 18.87255 6.801645 0 0 -30.45283 7.739825 10.48183 2.979738
1.213215 94.93941 36.063 0.5845631 -2.355658 2.590436 3.120061 -26.79131 -1.798159 -0 6.034273 -0 -8.031295 -0.3063961 -3.014831 -4.92148 16.75622 -8.528727 -0 14.57556 -0 -3.431947 -21.01693 11.75895 -1.377789 -0.4274863 2.49434 2.111183 9.387294 -7.856572 1.222282 21.79018 6.532664 3.015851 -22.01862 7.327263 -0.5369768 -16.4502 11.21761 93.01436 21.92764 -23.59584 -0 0 5.940665 -15.87259 7.039242 7.538835 7.030313 -25.13817 -5.504042 -83.97569 21.38307 7.402625 0 0 -30.83236 7.587901 11.35788 3.701046
1.229102 94.9499 42.28643 -1.945743 0.5152786 2.712021 7.070153 -26.79709 1.900684 -0 14.61103 -0 -8.418837 -3.256363 -2.997486 -3.690186 16.32182 -11.62994 -0 25.89911 -0 -5.481472 -15.89124 11.15531 0.6145795 -1.01132 1.907547 2.503294 8.153165 -8.025512 1.216836 21.51714 7.224939 2.832291 -24.16769 8.85463 1.880748 -15.25804 11.16744 91.83426 28.69649 -23.70975 -0 0 6.005942 -12.98017 10.1919 6.976566 5.802291 -22.43327 -3.319775 -86.707 24.38411 12.03151 0 0 -26.53866 6.778746 13.87143 6.147081
1.255479 95.61456 48.37922 -2.791656 0.1397245 2.528987 8.057897 -22.55396 2.72637 -0 18.48262 -0 -9.679657 -5.688205 -2.966212 -3.275975 12.61926 -12.4569 -0 39.02905 -0 -6.029211 -11.50722 11.5874 1.365631 -0.935373 2.04904 2.40371 8.146657 -7.759503 1.32523 22.11664 7.424041 2.636002 -24.3381 9.604572 2.499928 -14.76685 11.25639 91.85472 31.9713 -23.11799 -0 0 5.522962 -13.18234 12.40066 7.171832 4.618867 -21.16373 -2.651422 -88.1241 24.89258 14.65318 0 0 -23.26995 6.652629 15.68345 6.795814
1.277308 96.64643 54.24034 -2.596996 -1.473188 2.010831 7.817254 -17.2249 2.565596 -0 18.81327 -0 -10.43441 -7.646397 -3.102178 -3.175949 8.037611 -12.18649 -0 48.6381 -0 -5.84649 -8.805516 12.54457 1.396169 -0.5569958 2.60732 1.986831 8.611604 -7.211702 1.550278 22.81636 7.179407 2.438648 -23.4585 9.724732 2.308542 -14.78006 11.38147 91.83067 32.90306 -21.95595 -0 0 5.618251 -14.3362 13.69775 7.551862 3.938872 -20.5793 -2.750874 -88.74009 24.51727 15.87509 0 0 -21.01929 6.717727 16.65282 6.621459
